<?xml version="1.0" encoding="utf-8"?>
<!-- Generator: Adobe Illustrator 27.2.0, SVG Export Plug-In . SVG Version: 6.00 Build 0)  -->
<svg version="1.1" id="Layer_1" xmlns="http://www.w3.org/2000/svg" xmlns:xlink="http://www.w3.org/1999/xlink" x="0px" y="0px"
	 viewBox="0 0 203.1 203.1" style="enable-background:new 0 0 203.1 203.1;" xml:space="preserve">
<style type="text/css">
	.st0{fill:#FFFFFF;}
</style>
<g id="Group_5" transform="translate(-1181.288 -196.064)">
	<g id="Group_1">
		<path id="Path_1" class="st0" d="M1243.1,356.4c-3.5,5.2-7.9,9.8-12.9,13.6c-5.3,3.7-11.3,6.4-17.6,7.9c-0.3,0.1-0.5,0.1-0.8,0.2
			c-6.1,1.4-14.2,1.9-19.3-2.4c-4.5-3.8-4.6-10.5-2.6-15.6c2.6-6.6,7.7-11.3,14.3-13.9c10.9-4.2,21.4-3.2,30.9,4.2
			C1237.8,352.3,1240.4,354.3,1243.1,356.4z"/>
	</g>
	<g id="Group_2">
		<path id="Path_2" class="st0" d="M1184.4,338.1V230.2h89.5c-2.6,12.4-5.3,24.7-7.8,37.2c-4.5,22-14.2,68.8-14.8,70.3
			c-8.5-5.6-17.5-8.3-26.9-10.1C1210.1,324.9,1195.4,328.8,1184.4,338.1z"/>
	</g>
	<g id="Group_3">
		<path id="Path_3" class="st0" d="M1277.8,381.8c4.4,2.7,8.9,5.1,13.5,7.3h-52.4c0.4-0.2,0.8-0.5,1.1-0.8
			c7.1-5.6,14.3-11,19.6-18.6C1260.3,370.1,1272.1,378.3,1277.8,381.8z"/>
	</g>
	<g id="Group_4">
		<path id="Path_4" class="st0" d="M1343.2,230.2v143.4c-7.5-1.2-15-2.7-22.6-4.5l-29.1-9.2c-4.7-1.8-9.1-3.6-13.6-5.4
			c-4.2-1.7-4.5-2.4-3.6-6.8c4.9-22.2,9.8-44.4,14.5-66.6c3.6-17,7.1-34,10.5-51L1343.2,230.2z"/>
	</g>
</g>
</svg>
